<?xml version="1.0" standalone="no"?>
<!DOCTYPE svg PUBLIC "-//W3C//DTD SVG 20010904//EN"
 "http://www.w3.org/TR/2001/REC-SVG-20010904/DTD/svg10.dtd">
<svg version="1.0" xmlns="http://www.w3.org/2000/svg"
 width="16.000000pt" height="16.000000pt" viewBox="0 0 16.000000 16.000000"
 preserveAspectRatio="xMidYMid meet">
<metadata>
Created by potrace 1.11, written by Peter Selinger 2001-2013
</metadata>
<g transform="translate(0.000000,16.000000) scale(0.014414,-0.014414)"
fill="#000000" stroke="none">
<path d="M0 1070 c0 -22 5 -30 18 -30 10 0 27 -6 38 -14 18 -14 19 -34 24
-466 l5 -452 28 -24 c28 -24 32 -24 217 -24 179 0 191 -1 202 -20 16 -25 29
-25 51 0 16 19 29 20 207 20 188 0 191 0 215 24 24 24 24 24 27 2 2 -15 10
-21 28 -21 21 0 25 5 25 30 0 26 -4 30 -27 30 l-28 -1 0 434 0 433 25 24 c13
14 31 25 40 25 10 0 15 10 15 30 l0 30 -555 0 -555 0 0 -30z"/>
</g>
</svg>
